<?xml version="1.0" encoding="UTF-8" standalone="no"?>
<!DOCTYPE svg PUBLIC "-//W3C//DTD SVG 1.1//EN" "http://www.w3.org/Graphics/SVG/1.1/DTD/svg11.dtd">
<svg width="100%" height="100%" viewBox="0 0 220 220" version="1.1" xmlns="http://www.w3.org/2000/svg" xmlns:xlink="http://www.w3.org/1999/xlink" xml:space="preserve" xmlns:serif="http://www.serif.com/" style="fill-rule:evenodd;clip-rule:evenodd;stroke-linejoin:round;stroke-miterlimit:2;">
    <path d="M220,35.757L35.757,220L0,220L0,218.243L218.243,0L220,0L220,35.757ZM220,81.757L81.757,220L44.243,220L220,44.243L220,81.757ZM220,127.757L127.757,220L90.243,220L220,90.243L220,127.757ZM220,173.757L173.757,220L136.243,220L220,136.243L220,173.757ZM220,220L182.243,220L220,182.243L220,220ZM0,209.757L0,175.243L175.243,0L209.757,0L0,209.757ZM0,166.757L0,132.243L132.243,0L166.757,0L0,166.757ZM0,123.757L0,89.243L89.243,0L123.757,0L0,123.757ZM0,80.757L0,46.243L46.243,0L80.757,0L0,80.757ZM37.757,0L0,37.757L0,0L37.757,0Z"/>
</svg>
