<svg width="160" height="100" viewBox="0 0 160 100" fill="none" xmlns="http://www.w3.org/2000/svg">
<path d="M109.7 9.20001C109.6 9.10001 109.4 9 109.2 9H50.8001C50.6001 9 50.4001 9.10001 50.3001 9.20001C50.2001 9.40001 50.1 9.6 50.2 9.8L60 69.1C60.1 69.4 60.3 69.7 60.7 69.7H72.7L73.5 79.4H68.4L80.2 91.2L92 79.4H86.9L87.7 69.8H99.9C100.2 69.8 100.5 69.6 100.6 69.2L109.8 9.90001C109.9 9.50001 109.8 9.30001 109.7 9.20001ZM87.2 56.7C87.2 56.7 84.5 59.4 80.2 59.1C75.9 59.4 73.2 56.7 73.2 56.7C68.8 52.3 70.4 46.9 71.9 44.1C72.8 42.3 79.6 32.2 80.1 31.4C80.7 32.3 87.4001 42.4 88.3001 44.1C90.0001 46.9 91.5 52.3 87.2 56.7ZM105.7 21.7C104.1 21 102.1 21.3 100.2 22C93 24.9 88 26 80.4 23.6C75.6 22.1 71.1001 19 65.8001 20.9C62.3001 22.2 59 23.4 55 23.3L52.7 11.5H107.3L105.7 21.7Z" fill="white"/>
</svg>
