<svg width="162" height="100" viewBox="0 0 162 100" fill="none" xmlns="http://www.w3.org/2000/svg">
<path d="M125.8 28C119.2 22.8 111.4 22.3 108.3 22.3C106.7 22.3 105.2 22.4 104.1 22.7L103.7 22.8C99.4999 23.8 92.5999 25.4 84.4999 35.5L84.3 35.8C84.2 36 84.0999 36.2 84.0999 36.4C84.0999 36.6 84.0999 36.8 84.1999 36.9L84.4 37.2C85.7 39.4 86.7999 41.4 87.6999 43C87.9999 43.6 88.9 43.8 89.4 43.2C89.5 43.1 89.4999 43 89.5999 43C96.5999 33.3 102.1 32 105.7 31.2L106.1 31.1C106.6 31 107.4 30.9 108.3 30.9C110 30.9 115.8 31.2 120.4 34.8C124.5 38 126.5 43.1 126.5 50C126.5 61.6 120.9 66.1 116.2 67.8C114.4 68.5 112.5 68.8 110.5 68.8C105.7 68.8 101.9 66.9 101.9 66.8L101.6 66.6C97.5999 64.8 91.5 61.2 85.8 49.7C74.1 26.2 64.3 24 57.8 22.5L57.4999 22.4C56.9999 22.3 55.6 22 53.3 22C49.5 22 42.2999 22.7 36.0999 27.7C31.8999 31.1 26.7999 37.7 26.7999 49.7C26.7999 57.1 28.3 61.9 32.2 67C32.9 68 39.6999 76.7 52.6999 76.7C54.5999 76.7 56.5999 76.5 58.5999 76.1C60.9999 75.6 64.5999 74.5 68.6999 71.5L72.0999 74.6C72.4999 74.9 73.0999 74.9 73.4999 74.5C73.6999 74.3 73.7999 74.1 73.6999 73.9L76.3 57.6V57.4C76.3 57.1 76.1999 56.9 75.9999 56.7C75.7999 56.5 75.6 56.4 75.3 56.4L59.4 60.8H59.0999C58.8999 60.8 58.6999 60.9 58.5999 61.1C58.3999 61.3 58.3 61.6 58.3 61.8C58.3 62.1 58.3999 62.3 58.5999 62.5L61.9 65.5C60.2 66.6 58.4 67.3 56.8 67.6C55.4 67.9 53.9999 68 52.5999 68C43.5999 68 39.1999 62.1 38.9999 61.8L38.9 61.7C36.2 58.1 35.2 55 35.2 49.6C35.2 42.7 37.2 37.5 41.2 34.3C45.7 30.7 51.3999 30.5 52.9999 30.5C53.8999 30.5 54.6999 30.6 55.1999 30.7L55.5999 30.8C60.7999 32 67.9 33.6 77.8 53.4C83 63.9 89.4999 70.7 97.6999 74.3C98.6999 74.8 103.7 77.2 110.3 77.2C113.3 77.2 116.3 76.7 119.1 75.6C123.9 73.8 135 67.7 135 49.6C135.3 38 130.1 31.4 125.8 28Z" fill="white"/>
</svg>
