<svg width="161" height="100" viewBox="0 0 161 100" fill="none" xmlns="http://www.w3.org/2000/svg">
<path d="M111.8 28.4L95.4 44C94.8 44.6 94.5 45.1 94.5 46.3V89.9C94.5 90.4 94.9 90.8 95.4 90.8H112.3C112.8 90.8 113.2 90.4 113.2 89.9V28.8C113.3 28.2 112.9 27.3 111.8 28.4ZM64.7 48.6L48.3 64.2C47.7 64.8 47.4 65.3 47.4 66.5V89.8C47.4 90.3 47.8 90.7 48.3 90.7H65.2C65.7 90.7 66.1 90.3 66.1 89.8V49C66.2 48.5 65.8 47.6 64.7 48.6Z" fill="white"/>
<path d="M119.3 9.5C119.3 9.4 119.3 9.20001 119.2 9.10001C119.1 9.00001 119 9 118.9 9H118.7L106.2 11.8H106C105.9 11.8 105.8 11.9 105.8 11.9C105.6 12.1 105.6 12.4 105.8 12.6L105.9 12.7L108.8 15.6L80.4 44L67.3 30.9C67.2 30.8 66.9 30.8 66.8 30.9L63.2 34.5L42.2 55.5C42.1 55.6 42.1 55.9 42.2 56L45.8 59.6C45.9 59.7 46.2 59.7 46.3 59.6L67.1 38.9L76.6 48.4L80.2 52C80.3 52.1 80.6 52.1 80.7 52L112.9 19.8L115.9 22.8C116.1 23 116.4 23 116.6 22.8C116.7 22.7 116.7 22.6 116.7 22.5L119.5 9.70001L119.3 9.5Z" fill="white"/>
<path d="M88.4 51.4L80.5 59.4C80.3 59.5 80.1 59.5 80 59.4L72.8 52.1C71.5 50.8 71.2 51.9 71.2 52.4V90C71.2 90.5 71.6 90.9 72.1 90.9H89C89.5 90.9 89.9 90.5 89.9 90V51.8C89.9 51.1 89.5 50.2 88.4 51.4Z" fill="white"/>
</svg>
