<svg width="160" height="100" viewBox="0 0 160 100" fill="none" xmlns="http://www.w3.org/2000/svg">
<path d="M133.9 53.1128C133.9 48.6128 131 44.9128 126.6 44.9128C124.4 44.9128 121.7 47.3128 120.3 48.8128C118.9 47.3128 116.4 44.9128 114.2 44.9128C109.8 44.9128 106.7 48.6128 106.7 53.1128C106.7 55.4128 107.6 57.4128 109 58.9128L120.3 70.2128L131.6 58.9128C133 57.4128 133.9 55.4128 133.9 53.1128Z" fill="white"/>
<path d="M85.9 88.6128C84.9 88.5128 84.2 87.9128 84.1 87.1128L78.4 53.7128L69.7 69.8128C69.3 70.5128 68.5 70.9128 67.7 70.7128C66.9 70.6128 66.3 69.9128 66.2 69.1128L62.5 43.3128L55.8 58.4128C55.5 59.1128 54.8 59.5128 54.1 59.5128H27.9C26.9 59.5128 26 58.7128 26 57.6128C26 56.6128 26.8 55.7128 27.9 55.7128H52.9L61.8 35.8128C62.1 35.0128 62.9 34.6128 63.7 34.7128C64.5 34.8128 65.2 35.5128 65.3 36.3128L69.1 62.9128L77.7 47.0128C78.1 46.3128 78.8 45.9128 79.6 46.1128C80.4 46.2128 81 46.8128 81.1 47.6128L86.4 78.5128L105.7 14.3128C105.9 13.6128 106.6 13.0128 107.3 13.0128C108.1 12.9128 108.8 13.4128 109.1 14.0128L119.3 35.1128C119.7 36.0128 119.4 37.1128 118.4 37.6128C117.5 38.0128 116.4 37.7128 115.9 36.7128L107.8 19.9128L87.6 87.1128C87.4 88.1128 86.7 88.6128 85.9 88.6128Z" fill="white"/>
</svg>
