<svg width="162" height="100" viewBox="0 0 162 100" fill="none" xmlns="http://www.w3.org/2000/svg">
<path d="M27.3 68H51.5C51.8 68 52.1 67.7 52.1 67.4C52.1 67.2 52 67.1 51.9 67L39.9 51.4L39.8 51.3C39.7 51.2 39.5 51.1 39.4 51.1C39.3 51.1 39.1 51.2 39 51.3L38.9 51.4L38.8 51.5L27 66.9L26.8 67.1C26.7 67.2 26.7 67.3 26.7 67.4C26.7 67.7 27 68 27.3 68ZM51.4 70.2H27.1C26.8 70.2 26.5 70.5 26.5 70.8V89.8C26.5 90.1 26.8 90.4 27.1 90.4H34.9V78.5C34.9 78.2 35.2 77.9 35.5 77.9H42.7C43 77.9 43.3 78.2 43.3 78.5V90.4H51.3C51.6 90.4 51.9 90.1 51.9 89.8V70.8C52 70.5 51.8 70.2 51.4 70.2ZM135.2 65.2H111.2C110.9 65.2 110.6 65.5 110.6 65.8V90C110.6 90.3 110.9 90.6 111.2 90.6H135.2C135.5 90.6 135.8 90.3 135.8 90V65.8C135.8 65.5 135.6 65.2 135.2 65.2ZM122.1 81.1C122.1 81.4 121.8 81.7 121.5 81.7H114.3C114 81.7 113.7 81.4 113.7 81.1V76.7C113.7 76.4 114 76.1 114.3 76.1H121.5C121.8 76.1 122.1 76.4 122.1 76.7V81.1ZM122.1 73C122.1 73.3 121.8 73.6 121.5 73.6H114.3C114 73.6 113.7 73.3 113.7 73V68.6C113.7 68.3 114 68 114.3 68H121.5C121.8 68 122.1 68.3 122.1 68.6V73ZM133.1 81.1C133.1 81.4 132.8 81.7 132.5 81.7H125.3C125 81.7 124.7 81.4 124.7 81.1V76.7C124.7 76.4 125 76.1 125.3 76.1H132.5C132.8 76.1 133.1 76.4 133.1 76.7V81.1ZM133.1 73C133.1 73.3 132.8 73.6 132.5 73.6H125.3C125 73.6 124.7 73.3 124.7 73V68.6C124.7 68.3 125 68 125.3 68H132.5C132.8 68 133.1 68.3 133.1 68.6V73ZM79.4 9H56C55.7 9 55.4 9.30001 55.4 9.60001V89.9C55.4 90.2 55.7 90.5 56 90.5H79.5C79.8 90.5 80.1 90.2 80.1 89.9V9.60001C80 9.20001 79.8 9 79.4 9ZM65.5 81.3C65.5 81.5 65.4 81.6 65.2 81.6H59.8C59.6 81.6 59.5 81.5 59.5 81.3V75.3C59.5 75.1 59.6 75 59.8 75H65.2C65.4 75 65.5 75.1 65.5 75.3V81.3ZM65.5 67.5C65.5 67.7 65.4 67.8 65.2 67.8H59.8C59.6 67.8 59.5 67.7 59.5 67.5V61.5C59.5 61.3 59.6 61.2 59.8 61.2H65.2C65.4 61.2 65.5 61.3 65.5 61.5V67.5ZM65.5 53.7C65.5 53.9 65.4 54 65.2 54H59.8C59.6 54 59.5 53.9 59.5 53.7V47.7C59.5 47.5 59.6 47.4 59.8 47.4H65.2C65.4 47.4 65.5 47.5 65.5 47.7V53.7ZM65.5 40C65.5 40.2 65.4 40.3 65.2 40.3H59.8C59.6 40.3 59.5 40.2 59.5 40V34C59.5 33.8 59.6 33.7 59.8 33.7H65.2C65.4 33.7 65.5 33.8 65.5 34V40ZM65.5 26.2C65.5 26.4 65.4 26.5 65.2 26.5H59.8C59.6 26.5 59.5 26.4 59.5 26.2V20.2C59.5 20 59.6 19.9 59.8 19.9H65.2C65.4 19.9 65.5 20 65.5 20.2V26.2ZM76 81.3C76 81.5 75.9 81.6 75.7 81.6H70.3C70.1 81.6 70 81.5 70 81.3V75.3C70 75.1 70.1 75 70.3 75H75.7C75.9 75 76 75.1 76 75.3V81.3ZM76 67.5C76 67.7 75.9 67.8 75.7 67.8H70.3C70.1 67.8 70 67.7 70 67.5V61.5C70 61.3 70.1 61.2 70.3 61.2H75.7C75.9 61.2 76 61.3 76 61.5V67.5ZM76 53.7C76 53.9 75.9 54 75.7 54H70.3C70.1 54 70 53.9 70 53.7V47.7C70 47.5 70.1 47.4 70.3 47.4H75.7C75.9 47.4 76 47.5 76 47.7V53.7ZM76 40C76 40.2 75.9 40.3 75.7 40.3H70.3C70.1 40.3 70 40.2 70 40V34C70 33.8 70.1 33.7 70.3 33.7H75.7C75.9 33.7 76 33.8 76 34V40ZM76 26.2C76 26.4 75.9 26.5 75.7 26.5H70.3C70.1 26.5 70 26.4 70 26.2V20.2C70 20 70.1 19.9 70.3 19.9H75.7C75.9 19.9 76 20 76 20.2V26.2ZM135.8 62.8C135.8 63.1 135.6 63.3 135.3 63.3H111.1C110.8 63.3 110.6 63.1 110.6 62.8V58C110.6 57.7 110.8 57.5 111.1 57.5H135.3C135.6 57.5 135.8 57.7 135.8 58V62.8ZM107.8 24.1C107.7 23.8 107.5 23.7 107.2 23.7C107.1 23.7 107 23.7 106.9 23.8L106.7 24L83.6 53.3L83.5 53.4C83.4 53.5 83.3 53.7 83.3 53.9V89.9C83.3 90.2 83.6 90.5 83.9 90.5H107.4C107.7 90.5 108 90.2 108 89.9V24.3C107.9 24.3 107.9 24.2 107.8 24.1ZM98.1 40L98.3 39.8C99.9 37.8 102.5 34.5 103.8 32.9L104 32.7C104.1 32.6 104.3 32.5 104.5 32.5C104.8 32.5 105.1 32.7 105.1 33V40.4C105.1 40.8 104.8 41 104.5 41.1H98.7C98.3 41.1 98.1 40.8 98.1 40.4C98 40.3 98 40.1 98.1 40ZM94.4 81C94.4 81.3 94.1 81.6 93.8 81.6H86.8C86.5 81.6 86.2 81.3 86.2 81V76.6C86.2 76.3 86.5 76 86.8 76H93.8C94.1 76 94.4 76.3 94.4 76.6V81ZM94.4 73C94.4 73.3 94.1 73.6 93.8 73.6H86.8C86.5 73.6 86.2 73.3 86.2 73V68.6C86.2 68.3 86.5 68 86.8 68H93.8C94.1 68 94.4 68.3 94.4 68.6V73ZM94.4 64.9C94.4 65.2 94.1 65.5 93.8 65.5H86.8C86.5 65.5 86.2 65.2 86.2 64.9V60.5C86.2 60.2 86.5 59.9 86.8 59.9H93.8C94.1 59.9 94.4 60.2 94.4 60.5V64.9ZM94.5 47.1V56.7C94.5 57 94.2 57.3 93.9 57.3H86.9C86.6 57.3 86.3 57 86.3 56.7V55.5V55.3V55.2C86.3 55.2 86.3 55.1 86.4 55.1C86.4 55.1 86.4 55 86.5 55C87.4 53.7 91.4 48.7 93.1 46.7L93.3 46.5C93.4 46.4 93.6 46.3 93.8 46.3C94.1 46.3 94.4 46.5 94.4 46.8V47.1H94.5ZM105.2 81C105.2 81.3 104.9 81.6 104.6 81.6H97.6C97.3 81.6 97 81.3 97 81V76.6C97 76.3 97.3 76 97.6 76H104.6C104.9 76 105.2 76.3 105.2 76.6V81ZM105.2 73C105.2 73.3 104.9 73.6 104.6 73.6H97.6C97.3 73.6 97 73.3 97 73V68.6C97 68.3 97.3 68 97.6 68H104.6C104.9 68 105.2 68.3 105.2 68.6V73ZM105.2 64.9C105.2 65.2 104.9 65.5 104.6 65.5H97.6C97.3 65.5 97 65.2 97 64.9V60.5C97 60.2 97.3 59.9 97.6 59.9H104.6C104.9 59.9 105.2 60.2 105.2 60.5V64.9ZM105.2 56.8C105.2 57.1 104.9 57.4 104.6 57.4H97.6C97.3 57.4 97 57.1 97 56.8V52.4C97 52.1 97.3 51.8 97.6 51.8H104.6C104.9 51.8 105.2 52.1 105.2 52.4V56.8ZM105.2 48.7C105.2 49 104.9 49.3 104.6 49.3H97.6C97.3 49.3 97 49 97 48.7V44.3C97 44 97.3 43.7 97.6 43.7H104.6C104.9 43.7 105.2 44 105.2 44.3V48.7Z" fill="white"/>
</svg>
