<svg width="161" height="100" viewBox="0 0 161 100" fill="none" xmlns="http://www.w3.org/2000/svg">
<path d="M66.6 83.5765V86.0765C66.6 86.6765 67.1 87.0765 67.6 87.0765H94.1C94.7 87.0765 95.1 86.5766 95.1 85.9766V83.3766C110 78.4766 121.2 66.3765 123.7 51.5765V51.4766V51.3766C123.7 50.7766 123.2 50.2766 122.6 50.2766H38C37.4 50.2766 36.9 50.7766 36.9 51.3766L37 51.8766C39.9 66.6766 51.4 78.8765 66.6 83.5765ZM95.3 14.0766C95 14.5766 86.8 26.3766 95.5 35.8766C99.5 40.2766 99.1 44.0765 98 46.6765H103.6C104.7 42.8765 104.3 37.9765 99.7 33.0765C93.3 26.0765 99.8 16.5766 99.9 16.4766C100.7 15.3766 100.3 13.9766 99 13.3766C97.7 12.6766 96.1 12.9766 95.3 14.0766ZM81.2 46.6765H86.8C87.9 42.8765 87.5 37.9765 82.9 33.0765C76.5 26.0765 83 16.5766 83.1 16.4766C83.9 15.3766 83.5 13.9766 82.2 13.3766C80.9 12.7766 79.3 13.0765 78.5 14.1765C78.1 14.6765 70 26.4766 78.7 35.9766C82.7 40.2766 82.3 44.0765 81.2 46.6765ZM61.6 14.0766C61.2 14.5766 53.1 26.3766 61.8 35.8766C65.8 40.2766 65.4 44.0765 64.3 46.6765H69.9C71 42.8765 70.6 37.9765 66 33.0765C59.6 26.0765 66.1 16.5766 66.2 16.4766C67 15.3766 66.6 13.9766 65.3 13.3766C64.1 12.6766 62.4 12.9766 61.6 14.0766Z" fill="white"/>
</svg>
