<svg width="161" height="100" viewBox="0 0 161 100" fill="none" xmlns="http://www.w3.org/2000/svg">
<path d="M117.4 7H97.4C97.3 7 97.0999 7.1 97.0999 7.3V13.9C97.0999 14 97.2 14.2 97.4 14.2H105.4L96.5999 23C92.0999 19.5 86.5 17.4 80.4 17.4C66 17.4 54.2 29.2 54.2 43.6C54.2 56.9 64.1999 67.9 76.9999 69.6V77.3H69.0999C68.9999 77.3 68.7999 77.4 68.7999 77.6V84.7C68.7999 84.8 68.8999 85 69.0999 85H76.9999V92.5C76.9999 92.6 77.0999 92.8 77.2999 92.8H84.4C84.5 92.8 84.7 92.7 84.7 92.5V85H92.5999C92.6999 85 92.9 84.9 92.9 84.7V77.6C92.9 77.5 92.7999 77.3 92.5999 77.3H84.7V69.5C97.1 67.5 106.6 56.7 106.6 43.7C106.6 38.1 104.8 32.9 101.8 28.6L110.5 19.9V27.3C110.5 27.4 110.6 27.6 110.8 27.6H117.4C117.5 27.6 117.7 27.5 117.7 27.3V7.3C117.7 7.1 117.5 7 117.4 7ZM80.4 62.9C69.8 62.9 61.0999 54.2 61.0999 43.6C61.0999 33 69.7 24.3 80.4 24.3C91 24.3 99.7 32.9 99.7 43.6C99.7 54.2 91 62.9 80.4 62.9Z" fill="white"/>
<path d="M92.2999 35.7H68.9999C68.8999 35.7 68.7 35.8 68.7 35.9V41.6C68.7 41.7 68.7999 41.8 68.9999 41.8H92.4C92.5 41.8 92.7 41.7 92.7 41.6V35.9C92.6 35.8 92.4999 35.7 92.2999 35.7ZM92.2999 45.8H68.9999C68.8999 45.8 68.7 45.9 68.7 46V51.7C68.7 51.8 68.7999 51.9 68.9999 51.9H92.4C92.5 51.9 92.7 51.8 92.7 51.7V46C92.6 45.9 92.4999 45.8 92.2999 45.8Z" fill="white"/>
</svg>
