<svg width="161" height="100" viewBox="0 0 161 100" fill="none" xmlns="http://www.w3.org/2000/svg">
<path d="M70.4001 35.4L41.5001 18.7V72.7L70.4001 81.4V35.4ZM73.5001 35.5V81.4L102.6 72.6V18.7L73.5001 35.5ZM125.2 17.4C125.2 15.5 123.7 14 121.8 14C119.9 14 118.4 15.5 118.4 17.4V21.1H125.2V17.4ZM119.3 71.7H118.4L121.8 83.6L125.2 71.7H124.4H125.2V23.7H118.4V71.7H119.3Z" fill="white"/>
<path d="M108.8 21.1L105.7 18.6V74.1L73.6 84.5H70.4001L38.4001 75.6V18.6L35.3 21.1V77.7L70.2001 87.4H73.8L105.9 77.2L108.8 76.3V21.1Z" fill="white"/>
</svg>
