<svg width="162" height="100" viewBox="0 0 162 100" fill="none" xmlns="http://www.w3.org/2000/svg">
<path d="M140.3 49.7C136.1 43.8 116.9 20 81.2 20C45.5 20 26.4 43.7 22.1 49.7C21.9 50 21.8 50.2 21.6 50.4C21.7 50.6 21.9 50.8 22.1 51.1C26.3 57 45.5 80.8 81.2 80.8C116.8 80.8 136 57.1 140.3 51.1C140.5 50.8 140.6 50.6 140.8 50.4C140.6 50.2 140.5 49.9 140.3 49.7ZM61.3 35C61.6 34.5 62.7 33.2 62.8 33C63.1 32.6 63.6 32.6 64 32.5C64.4 32.4 64.9 32.6 64.9 32.9C65 33.2 64.8 34.3 64.6 34.5C64.1 35 62.7 35.8 62 35.7C61.5 35.6 61.2 35.2 61.3 35ZM60.1 37.5C60.2 37.4 60.2 37.4 60.2 37.3C60.6 36.8 61.5 36.7 62.2 36.6C62.8 36.5 63.6 36.8 63.7 37.2C63.8 37.6 62.2 38.4 61.8 38.6C60.9 39.4 59.6 41 58.8 41.2C58.5 41.3 58.3 41.2 58.2 41.1C58.7 40 59.4 38.7 60.1 37.5ZM73.4 64.9C72.9 66.8 72.4 67.5 71.9 68.1C71.4 68.7 69.6 69.5 68.5 69.4C67.4 69.3 67.2 66.3 67.2 64.8C67.2 64.3 66.4 65.9 66 62.6C65.7 60.5 64.4 62.8 64.3 61.4C64.2 60 63.5 60.3 62.8 59.4C62.1 58.5 61.2 59.5 60.3 59.9C59.3 60.3 59.7 60.6 58.4 60.1H58.3C57 57.1 56.3 53.9 56.3 50.4C56.3 49.6 56.3 48.7 56.4 47.9C56.4 47.8 56.5 47.7 56.6 47.7C57.9 46.1 57.9 45.8 57.9 45.8L59.4 45.3C59.4 45.3 61.7 45.7 63.5 46.3C64.9 46.8 67.2 48.1 68.5 47.5C69.5 47.1 70.2 46.6 70.1 45.8C70 44.8 69.2 44.6 68.3 45.2C67.9 45.4 67.2 43.7 66.6 43.8C66 43.9 67.3 45.9 66.8 45.9C66.3 46 65.3 43.8 65.1 43.5C64.9 43.2 64.2 42.3 63.5 43C62 44.4 59.7 44.3 59.2 44.7C57.7 45.8 57.4 44.3 57.4 43.5C57.5 43.3 57.5 43.1 57.6 42.9C58.1 42.4 59.8 42.2 60.4 42.6C61 43 61.5 42.5 61.8 42.2C62.1 41.9 62 41.5 61.8 41.2C61.6 40.9 62.1 40.6 62.5 40.5C62.8 40.4 63.9 39.6 64.4 39.4C64.8 39.1 67.1 38.9 68.2 39.4C69.2 39.9 70.2 39.5 70.7 38.9C71.3 38.1 72.1 37.6 72.5 37.4C72.9 37.2 71.6 36.1 70.6 37.3C69.6 38.6 69.1 38.7 68.6 38.7C68.1 38.7 65.3 38 64.9 37.1C64.6 36.2 65.8 35.5 66.9 35C68 34.5 70.9 34.5 71.6 34.3C73.1 34 75 33.2 76 33.9C77 34.5 72 35.7 73.6 36.6C74.2 36.9 76.8 35.1 77.7 34.6C79.8 33.5 75.6 33.1 76.2 30.9C76.8 28.4 71 29.3 68.2 29.6C72.1 27.1 76.6 25.7 81.6 25.7C93.3 25.7 103.1 33.8 105.7 44.7C105.7 45.2 105.6 45.6 105.6 45.8C105.4 46.7 103.7 47.5 102.7 46C102.4 45.6 101.4 44.6 101.4 46.4C101.4 48.1 103.1 48.3 101.5 49.3C99.9 50.3 99.6 50.1 98.9 50.3C98.2 50.6 97.5 52.3 97.6 53.3C97.8 54.2 100 56.8 98.4 56.7C98 56.7 95 54.6 94.5 53.3C94 51.9 93.4 50.6 93 49.5C92.6 48.5 91.5 48.2 90.7 48.8C89.8 49.4 90.9 50 90.3 51.3C89.7 52.6 89.2 53.7 88.3 52.7C85.9 49.9 82.4 51.3 81.8 48.2C81.5 46.5 80.1 46.7 78.9 45.7C77.7 44.8 77 44.2 76.8 44.9C76.6 45.5 80.6 48.7 80.9 49.5C81.3 50.7 79.7 51.8 78.5 52C77.3 52.3 76.8 51.3 75.6 50.1C74.4 48.9 73.9 48 73.9 49C73.8 50.4 75 52.4 76.2 53.1C77.2 53.7 78.3 54 78 55.1C77.7 56.1 78 55.5 76.9 56.7C75.8 57.8 75.6 58.2 75.6 59.7C75.7 61.3 75.3 61.3 75 62.6C74.5 64.1 73.9 63 73.4 64.9ZM100.1 55C100.9 54.9 102.2 56.1 101.7 56.5C101.2 56.9 100 56.8 99.3 56.3C98.7 55.8 99.7 55 100.1 55ZM99 54.2C98.7 54.1 98.5 53.8 98.3 53.2C98.1 52.6 98.6 52.2 99.1 52.5C99.6 52.8 100.3 53.5 100.3 53.9C100.3 54.4 99.3 54.4 99 54.2ZM88 54.2C87.5 54.6 86.3 54.5 85.6 54C85 53.5 86 52.7 86.4 52.7C87.3 52.6 88.5 53.8 88 54.2ZM77.9 59.1C77.6 59.7 76.6 63.8 76 63.3C75.4 62.8 76.3 58.5 76.4 58.1C77.4 56.4 79.5 56.5 77.9 59.1ZM81.3 75.3C78.9 75.3 76.5 74.9 74.3 74.3C74 74 73.8 73.6 74 73.1C74.8 71.1 77.1 70.3 78.9 70.1C82.9 69.7 88.2 72.7 89.1 72.2C89.9 71.7 91.6 69.5 94.1 69.6C95.8 69.7 95.8 70 96.4 70.2C92.2 73.4 86.9 75.3 81.3 75.3ZM98.8 68.1C98.6 68 98.3 67.9 98 67.8C96.6 67.1 96.8 68.2 96.1 68C95.4 67.8 96.9 66.2 94.8 67.5C92.8 68.8 93.3 67.3 92.5 65.1C91.6 62.9 93.5 60.4 95.1 59.8C97.3 59 98.6 58.9 99.6 58.6C102.6 57.9 103.2 56.1 103.8 57.2L104.1 57.8C104.3 58.1 104.5 58.8 104.5 59.4C103.2 62.7 101.3 65.6 98.8 68.1ZM105.6 55.6C104.9 55.4 102.1 51.6 104.4 49C104.8 48.6 103.7 47.4 104 47.3C105.2 47.2 105.8 48 106.2 49V50.4C106.1 52.2 105.9 53.9 105.6 55.6Z" fill="white"/>
</svg>
