<svg width="161" height="100" viewBox="0 0 161 100" fill="none" xmlns="http://www.w3.org/2000/svg">
<path d="M124 66.5C122 63.8 108.9 47.1 90.6 47.1C74.7 47.1 57.6 61.5 57.6 61.5C57.6 61.5 51.2 48.4 38.1 47.1H37.8C37.5 47.1 37.3 47.4 37.3 47.6C37.3 47.8 37.5 48.1 37.5 48.1C39.2 50.9 43.5 58.9 43.5 66.8C43.5 74.8 39.2 82.8 37.5 85.6L37.4 85.8C37.4 85.9 37.3 86 37.3 86.1C37.3 86.4 37.5 86.6 37.8 86.6H38C51.1 85.4 57.6 72.2 57.6 72.2C57.6 72.2 74.6 86.6 90.6 86.6C108.9 86.6 122 69.9 124 67.2C124.1 67.1 124.1 67.1 124.1 67V66.8V66.6L124 66.5ZM100.7 69C97.7 69 95.3 66.6 95.3 63.6C95.3 60.6 97.7 58.3 100.7 58.3C103.7 58.3 106.1 60.7 106.1 63.6C106.1 66.6 103.7 69 100.7 69ZM37.6 15.7H37.5C37.2 15.7 37 15.9 37 16.2V19.9C37 20.1 37.1 20.2 37.2 20.3C46.1 28 54.4 20.8 56.4 18.9C56.4 18.8 56.5 18.8 56.5 18.8C56.6 18.7 56.7 18.7 56.8 18.7C56.9 18.7 57.1 18.8 57.2 18.8C67.2 28.3 77.7 20.6 79.9 18.8L80.1 18.6H80.5L80.7 18.8C82.9 20.6 93.4 28.3 103.4 18.8C103.5 18.7 103.6 18.7 103.8 18.7C103.9 18.7 104 18.7 104.1 18.8C104.2 18.8 104.2 18.9 104.2 18.9C106.1 20.8 114.5 28 123.4 20.3C123.5 20.2 123.6 20.1 123.6 19.9V16.2C123.6 15.9 123.4 15.7 123.1 15.7H123C122.9 15.7 122.8 15.8 122.7 15.8C120 17.2 111.5 20.4 103.9 13.2L103.7 13H103.3C103.2 13 103.1 13.1 103 13.2C100.7 14.9 90.2 22 80.9 13.3L80.8 13.2C80.7 13.1 80.6 13 80.4 13C80.3 13 80.1 13.1 80 13.2L79.9 13.3C70.6 22 60.1 14.9 57.8 13.2C57.7 13.1 57.7 13 57.5 13H57.1L56.9 13.2C49.2 20.5 40.8 17.2 38.1 15.8C37.8 15.8 37.7 15.7 37.6 15.7ZM56.3 32.1C56.3 32 56.4 32 56.4 32C56.5 31.9 56.6 31.9 56.7 31.9C56.8 31.9 57 32 57.1 32C67.1 41.5 77.6 33.8 79.8 32L80 31.8H80.4L80.6 32C82.8 33.8 93.3 41.5 103.3 32C103.4 31.9 103.5 31.9 103.7 31.9C103.8 31.9 103.9 31.9 104 32C104.1 32 104.1 32.1 104.1 32.1C106 34 114.4 41.2 123.3 33.5C123.4 33.4 123.5 33.3 123.5 33.1V29.4C123.5 29.1 123.3 28.9 123 28.9H122.9C122.8 28.9 122.7 29 122.6 29C119.9 30.4 111.4 33.6 103.8 26.4L103.6 26.2C103.5 26.2 103.5 26.1 103.4 26.1H103.2C103.1 26.1 103 26.2 102.9 26.3C100.6 28 90.1 35.1 80.8 26.4L80.7 26.3C80.6 26.2 80.5 26.2 80.3 26.2C80.2 26.2 80 26.3 79.9 26.3L79.8 26.4C70.5 35.1 60 28 57.7 26.3C57.6 26.2 57.6 26.1 57.4 26.1H57.2C57.1 26.1 57.1 26.1 57 26.2L56.8 26.4C49.1 33.6 40.7 30.4 38 29C37.9 29 37.8 28.9 37.7 28.9H37.6C37.3 28.9 37.1 29.1 37.1 29.4V33.1C37.1 33.3 37.2 33.4 37.3 33.5C46 41.2 54.4 34 56.3 32.1Z" fill="white"/>
</svg>
