<svg width="162" height="100" viewBox="0 0 162 100" fill="none" xmlns="http://www.w3.org/2000/svg">
<path d="M121.5 45.9C121.5 34.6 112.5 25.4 101.3 25C98.4 16.9 90.6 11 81.5 11C72.4 11 64.6 16.8 61.7 25C50.5 25.4 41.5 34.6 41.5 45.9C41.5 52.6 44.7 58.6 49.6 62.4C49.1 64.2 48.8 66.2 48.8 68.2C48.8 79.8 58.2 89.2 69.8 89.2C74.2 89.2 78.3 87.8 81.6 85.5C84.9 87.7 88.9 89 93.2 89C104.8 89 114.2 79.6 114.2 68C114.2 66 113.9 64.1 113.4 62.3C118.4 58.6 121.5 52.6 121.5 45.9ZM98.3 32C98.3 40.4 92.1 47.3 84 48.5C83.9 47.7 83.8 46.8 83.8 45.9C83.8 37.5 90 30.6 98.1 29.4C98.2 30.2 98.3 31.1 98.3 32ZM81.7 80.1C78.6 77.1 76.6 72.8 76.6 68.1C76.6 63.5 78.5 59.3 81.5 56.2C84.6 59.2 86.6 63.5 86.6 68.2C86.6 72.9 84.7 77.1 81.7 80.1ZM65.1 29.4C73.2 30.6 79.4 37.5 79.4 45.9C79.4 46.8 79.3 47.6 79.2 48.5C71.1 47.3 64.9 40.4 64.9 32C64.9 31.1 64.9 30.2 65.1 29.4ZM77.6 53.4C74.8 58.9 69.2 62.7 62.7 62.7C59.9 62.7 57.3 62 55 60.8C57.8 55.3 63.4 51.5 70 51.5C72.6 51.5 75.3 52.2 77.6 53.4ZM85.6 53.3C87.9 52.1 90.5 51.4 93.3 51.4C99.9 51.4 105.6 55.2001 108.3 60.8C106 62 103.3 62.7 100.6 62.7C94 62.7 88.3 58.9 85.6 53.3ZM81.6 15.2C88.5 15.2 94.4 19.3 96.9 25.3C90.1 26.5 84.4 31 81.6 37.1C78.8 31 73.1 26.5 66.3 25.3C68.8 19.4 74.7 15.2 81.6 15.2ZM45.9 45.9C45.9 37.3 52.5 30.2 60.8 29.3C60.7 30.2 60.6 31.1 60.6 32C60.6 38.1 63.2 43.6 67.4 47.5C60.4 48.3 54.5 52.5 51.3 58.4C48 55.3 45.9 50.9 45.9 45.9ZM53.1 68.3C53.1 67.1 53.2 66 53.5 64.8C56.3 66.1 59.3 66.9 62.6 66.9C66.3 66.9 69.7 66 72.7 64.3C72.5 65.5 72.3 66.8 72.3 68.2C72.3 73.9 74.6 79 78.2 82.8C75.7 84.3 72.8 85.1 69.8 85.1C60.6 85 53.1 77.5 53.1 68.3ZM110.1 68.1C110.1 77.3 102.6 84.8 93.4 84.8C90.4 84.8 87.6 84 85.1 82.6C88.7 78.8 90.9 73.8 90.9 68.2C90.9 66.8 90.8 65.5 90.5 64.2C93.5 65.9 97 66.8 100.7 66.8C104 66.8 107.1 66 109.8 64.7C109.9 65.9 110.1 67 110.1 68.1ZM95.8 47.3C99.9 43.5 102.5 38 102.5 31.9C102.5 31 102.4 30.1 102.3 29.2C110.7 30.1 117.2 37.2 117.2 45.8C117.2 50.7001 115.1 55.1 111.7 58.2C108.7 52.4 102.8 48.2001 95.8 47.3Z" fill="white"/>
</svg>
