<svg width="161" height="100" viewBox="0 0 161 100" fill="none" xmlns="http://www.w3.org/2000/svg">
<path d="M131 33C133.5 33 135.4 31 135.4 28.5C135.4 26 133.4 24 131 24C128.5 24 126.5 26 126.5 28.5C126.5 31 128.5 33 131 33ZM136.2 34.7H125.8C122.8 35 120.4 37.5 120.4 40.6V52.9C120.4 53.8 121.2 54.6 122.1 54.6C123.1 54.6 123.8 53.8 123.8 52.9V42.3C123.8 41.9 123.9 41.4 124.6 41.4C125.1 41.4 125.2 41.9 125.2 42.3V74.1C125.2 75.5 126.3 76.6 127.7 76.6C129.1 76.6 130.2 75.5 130.2 74.1V55.7C130.2 55.5 130.3 55 130.9 55C131.5 55 131.6 55.5 131.6 55.7V74C131.6 75.4 132.7 76.5 134.1 76.5C135.5 76.5 136.6 75.4 136.6 74V42.2C136.6 41.9 136.7 41.3 137.2 41.3C137.9 41.3 138 41.8 138 42.2V52.8C138 53.7 138.8 54.5 139.7 54.5C140.7 54.5 141.4 53.7 141.4 52.8V40.6C141.6 37.5 139.2 34.9 136.2 34.7ZM95.8 35.1C98.1 35.1 100 33.2 100 30.9C100 28.6 98.1 26.7 95.8 26.7C93.5 26.7 91.6 28.6 91.6 30.9C91.6 33.2 93.5 35.1 95.8 35.1ZM100.8 42.8C101.4 42.6 101.5 43.4 101.5 43.4L104.3 52.9C104.3 52.9 104.8 54.9 106.6 54.4C108.4 53.9 107.8 51.8 107.8 51.8L104.3 40.4C104.3 40.4 103 37.1 100.3 37.1H91.3C88.5 37.1 87.3 40.4 87.3 40.4L83.8 51.8C83.8 51.8 83.2 53.9 85 54.4C86.8 54.9 87.3 52.9 87.3 52.9L90.1 43.4C90.1 43.4 90.3 42.7 90.8 42.8C91.4 43 91.1 43.7 91.1 43.7L86.2 61.6H90.8V74.4C90.8 75.6 91.8 76.6 93 76.6C94.2 76.6 95.2 75.6 95.2 74.4V61.6H96.4V74.4C96.4 75.6 97.4 76.6 98.6 76.6C99.8 76.6 100.8 75.6 100.8 74.4V61.6H105.4L100.5 43.7C100.5 43.7 100.3 43 100.8 42.8ZM70.5 35.1C72.8 35.1 74.7 33.2 74.7 30.9C74.7 28.6 72.8 26.7 70.5 26.7C68.2 26.7 66.3 28.6 66.3 30.9C66.3 33.2 68.2 35.1 70.5 35.1ZM79 40.4C79 40.4 77.8 37.1 75 37.1H66C63.2 37.1 62 40.4 62 40.4L58.5 51.8C58.5 51.8 58.4 52.1 58.4 52.5C58.2 52.2 57.8 52 57.4 52C56.9 52 56.5 52.2 56.3 52.6C56.2 52.7 54.6 55.6 54 56.1C53.4 56.7 52.9 56.6 52.9 56.6H48.7C48.7 56.6 48.2 56.7 47.6 56.1C47.1 55.6 45.4 52.6 45.3 52.6C45.1 52.2 44.7 52 44.2 52C43.8 52 43.4 52.2 43.2 52.6V40.6C43.2 37.5 40.8 35 37.8 34.7H27.4C24.4 35 22 37.5 22 40.6V52.9C22 53.6 22.4 54.1 22.9 54.4C22.9 54.4 22.8 54.5 22.8 54.6L18.8 75.6C18.7 76 19 76.3 19.3 76.4H19.4C19.7 76.4 20 76.2 20 75.9L24 54.9V54.7C24.8 54.5 25.3 53.8 25.3 53V42.4C25.3 42 25.4 41.5 26.1 41.5C26.6 41.5 26.7 42 26.7 42.4V74.2C26.7 75.6 27.8 76.7 29.2 76.7C30.6 76.7 31.7 75.6 31.7 74.2V55.7C31.7 55.5 31.8 55 32.4 55C33 55 33.1 55.5 33.1 55.7V74C33.1 75.4 34.2 76.5 35.6 76.5C37 76.5 38.1 75.4 38.1 74V42.2C38.1 41.9 38.2 41.3 38.7 41.3C39.4 41.3 39.5 41.8 39.5 42.2V52.8C39.5 53.7 40.3 54.5 41.2 54.5C41.9 54.5 42.5 54.1 42.8 53.5C42.8 53.6 42.9 53.7 42.9 53.7L46.4 60.1C46.4 60.1 46.6 60.5 46.6 60.9V62.2L44.7 69.1H46.6V74.7C46.6 75.7 47.4 76.4 48.3 76.4C49.3 76.4 50 75.6 50 74.7V69.3V69.1H51V74.7C51 75.7 51.8 76.4 52.7 76.4C53.7 76.4 54.4 75.6 54.4 74.7V69.1H56.3L54.4 62.2V61C54.4 60.6 54.6 60.2 54.6 60.2L57.9 54.3C57.9 54.3 58.1 53.9 58.2 53.5C58.4 53.9 58.7 54.2 59.2 54.4C61 54.9 61.5 52.9 61.5 52.9L64.3 43.4C64.3 43.4 64.5 42.7 65 42.8C65.6 43 65.3 43.7 65.3 43.7L60.4 61.6H65V74.4C65 75.6 66 76.6 67.2 76.6C68.4 76.6 69.4 75.6 69.4 74.4V61.6H70.6V74.4C70.6 75.6 71.6 76.6 72.8 76.6C74 76.6 75 75.6 75 74.4V61.6H79.6L74.7 43.7C74.7 43.7 74.5 42.9 75 42.8C75.6 42.6 75.7 43.4 75.7 43.4L78.5 52.9C78.5 52.9 79 54.9 80.8 54.4C82.6 53.9 82 51.8 82 51.8L79 40.4ZM114.2 54.4C116.1 54.4 117.7 52.8 117.7 50.9C117.7 49 116.1 47.4 114.2 47.4C112.3 47.4 110.7 49 110.7 50.9C110.7 52.9 112.2 54.4 114.2 54.4ZM122.5 64.4C122.5 64.3 120.3 58.9 120 58.1C119.2 55.8 117.8 55.8 116.4 55.8H114.2H111.5C109.7 55.9 109.1 56.8 107.1 62C106.8 62.7 105.8 65.2 105.8 65.3C105.6 65.7 105.5 66.6 106.3 67C107.3 67.4 107.8 66.5 107.8 66.5L109.7 60.4C109.7 60.4 110 60 110 60.4V74.7C110 75.7 110.8 76.5 111.8 76.5C112.8 76.5 113.6 75.7 113.6 74.7V69C113.6 69 113.5 68.2 114.1 68.2C114.7 68.2 114.6 69 114.6 69V74.7C114.6 75.7 115.4 76.5 116.4 76.5C117.4 76.5 118.2 75.7 118.2 74.7V60.4C118.2 60 118.4 60.3 118.4 60.3L119.9 64.5C119.9 64.5 120.5 66.4 120.7 66.4C121.4 66.7 122.2 66.4 122.4 65.7C122.8 65.3 122.7 64.8 122.5 64.4ZM32.6 33C35.1 33 37.1 31 37.1 28.5C37.1 26 35.1 24 32.6 24C30.1 24 28.2 26 28.2 28.5C28.2 31 30.2 33 32.6 33Z" fill="white"/>
<path d="M50.8 54.4C52.7 54.4 54.3 52.8 54.3 50.9C54.3 49 52.7 47.4 50.8 47.4C48.9 47.4 47.3 49 47.3 50.9C47.3 52.9 48.9 54.4 50.8 54.4Z" fill="white"/>
</svg>
