<svg width="48" height="48" viewBox="0 0 48 48" fill="none" xmlns="http://www.w3.org/2000/svg">
<path fill-rule="evenodd" clip-rule="evenodd" d="M24.4382 13.938C24.5776 13.7983 24.7431 13.6875 24.9253 13.6119C25.1076 13.5363 25.3029 13.4973 25.5002 13.4973C25.6975 13.4973 25.8929 13.5363 26.0751 13.6119C26.2574 13.6875 26.4229 13.7983 26.5622 13.938L35.5622 22.938C35.7019 23.0773 35.8128 23.2429 35.8884 23.4251C35.964 23.6073 36.0029 23.8027 36.0029 24C36.0029 24.1973 35.964 24.3927 35.8884 24.5749C35.8128 24.7571 35.7019 24.9227 35.5622 25.062L26.5622 34.062C26.2806 34.3437 25.8986 34.5019 25.5002 34.5019C25.1019 34.5019 24.7199 34.3437 24.4382 34.062C24.1566 33.7803 23.9983 33.3983 23.9983 33C23.9983 32.6017 24.1566 32.2197 24.4382 31.938L32.3792 24L24.4382 16.062C24.2985 15.9227 24.1877 15.7571 24.1121 15.5749C24.0365 15.3927 23.9976 15.1973 23.9976 15C23.9976 14.8027 24.0365 14.6073 24.1121 14.4251C24.1877 14.2429 24.2985 14.0773 24.4382 13.938Z" fill="white"/>
<path fill-rule="evenodd" clip-rule="evenodd" d="M12 24C12 23.6022 12.158 23.2206 12.4393 22.9393C12.7206 22.658 13.1022 22.5 13.5 22.5H33C33.3978 22.5 33.7794 22.658 34.0607 22.9393C34.342 23.2206 34.5 23.6022 34.5 24C34.5 24.3978 34.342 24.7794 34.0607 25.0607C33.7794 25.342 33.3978 25.5 33 25.5H13.5C13.1022 25.5 12.7206 25.342 12.4393 25.0607C12.158 24.7794 12 24.3978 12 24Z" fill="white"/>
</svg>
