<svg width="349" height="103" viewBox="0 0 349 103" fill="none" xmlns="http://www.w3.org/2000/svg">
<circle cx="205.5" cy="21.5" r="21.5" fill="#E5243B"/>
<ellipse cx="150" cy="21.5" rx="21" ry="21.5" fill="#19486A"/>
<ellipse cx="98" cy="21.5" rx="21" ry="21.5" fill="#00689D"/>
<circle cx="55.5" cy="21.5" r="21.5" fill="#56C02B"/>
<ellipse cx="25.5" cy="21" rx="21.5" ry="20" fill="#0A97D9"/>
<ellipse cx="21.5" cy="21" rx="21.5" ry="21" fill="#3F7E44"/>
<ellipse cx="37.5" cy="21.5" rx="20.5" ry="21.5" fill="#BF8B2E"/>
<circle cx="70.5" cy="21.5" r="20.5" fill="#FD9D24"/>
<circle cx="120.5" cy="21.5" r="21.5" fill="#DD1367"/>
<ellipse cx="176" cy="21.5" rx="21" ry="21.5" fill="#FD6925"/>
<ellipse cx="233.5" cy="21.5" rx="20.5" ry="21.5" fill="#A21942"/>
<ellipse cx="284" cy="21.5" rx="21" ry="20.5" fill="#FCC30B"/>
<circle cx="257.5" cy="21.5" r="20.5" fill="#DDA63A"/>
<ellipse cx="300" cy="21.5" rx="20" ry="20.5" fill="#4C9F38"/>
<ellipse cx="323.5" cy="21" rx="21.5" ry="21" fill="#C5192D"/>
<circle cx="327.5" cy="21.5" r="21.5" fill="#FF3A21"/>
<circle cx="315.5" cy="21.5" r="20.5" fill="#26BDE2"/>
<path d="M348.354 76.3536C348.549 76.1583 348.549 75.8417 348.354 75.6464L345.172 72.4645C344.976 72.2692 344.66 72.2692 344.464 72.4645C344.269 72.6597 344.269 72.9763 344.464 73.1716L347.293 76L344.464 78.8284C344.269 79.0237 344.269 79.3403 344.464 79.5355C344.66 79.7308 344.976 79.7308 345.172 79.5355L348.354 76.3536ZM6 76.5H348V75.5H6V76.5Z" fill="#949494"/>
<path opacity="0.3" d="M317.902 98H322.162V97.004H320.71V90.284H319.582V90.416C319.582 90.788 319.39 90.956 318.682 90.956H317.902V91.94H319.366V97.004H317.902V98ZM326.724 98.156C328.62 98.156 329.76 96.728 329.76 94.148C329.76 91.616 328.644 90.128 326.724 90.128C324.816 90.128 323.676 91.568 323.676 94.148C323.676 96.668 324.792 98.156 326.724 98.156ZM326.724 97.064C325.608 97.064 324.984 95.996 324.984 94.148C324.984 92.252 325.608 91.22 326.724 91.22C327.828 91.22 328.452 92.276 328.452 94.148C328.452 96.032 327.84 97.064 326.724 97.064ZM333.638 98.156C335.534 98.156 336.674 96.728 336.674 94.148C336.674 91.616 335.558 90.128 333.638 90.128C331.73 90.128 330.59 91.568 330.59 94.148C330.59 96.668 331.706 98.156 333.638 98.156ZM333.638 97.064C332.522 97.064 331.898 95.996 331.898 94.148C331.898 92.252 332.522 91.22 333.638 91.22C334.742 91.22 335.366 92.276 335.366 94.148C335.366 96.032 334.754 97.064 333.638 97.064ZM339.16 94.484C340.336 94.484 341.032 93.692 341.032 92.312C341.032 90.944 340.336 90.128 339.16 90.128C337.996 90.128 337.288 90.92 337.288 92.312C337.288 93.692 337.984 94.484 339.16 94.484ZM338.572 98H339.784L345.172 90.284H343.972L338.572 98ZM339.16 93.62C338.644 93.62 338.356 93.152 338.356 92.312C338.356 91.46 338.632 91.004 339.16 91.004C339.688 91.004 339.976 91.472 339.976 92.312C339.976 93.164 339.688 93.62 339.16 93.62ZM344.572 98.108C345.76 98.108 346.444 97.316 346.444 95.936C346.444 94.556 345.748 93.74 344.572 93.74C343.408 93.74 342.7 94.544 342.7 95.936C342.7 97.304 343.396 98.108 344.572 98.108ZM344.572 97.244C344.056 97.244 343.768 96.776 343.768 95.936C343.768 95.084 344.056 94.616 344.572 94.616C345.1 94.616 345.388 95.084 345.388 95.936C345.388 96.788 345.1 97.244 344.572 97.244Z" fill="white"/>
<path opacity="0.3" d="M124.345 98H127.141C129.697 98 131.281 96.488 131.281 93.932C131.281 91.376 129.697 89.84 127.141 89.84H124.345V98ZM127.141 96.908H125.689V90.932H127.141C128.881 90.932 129.913 92.036 129.913 93.932C129.913 95.804 128.881 96.908 127.141 96.908ZM138.05 98H139.454L136.31 89.84H134.738L131.594 98H132.938L133.634 96.164H137.354L138.05 98ZM135.254 91.928L135.494 91.136L135.734 91.928L136.946 95.108H134.042L135.254 91.928ZM141.705 98H143.049V90.968H145.761V89.84H138.981V90.968H141.705V98ZM151.726 98H153.13L149.986 89.84H148.414L145.27 98H146.614L147.31 96.164H151.03L151.726 98ZM148.93 91.928L149.17 91.136L149.41 91.928L150.622 95.108H147.718L148.93 91.928ZM161.617 98H163.021L159.877 89.84H158.305L155.161 98H156.505L157.201 96.164H160.921L161.617 98ZM158.821 91.928L159.061 91.136L159.301 91.928L160.513 95.108H157.609L158.821 91.928ZM163.667 89.84H162.251L165.407 98H166.967L170.111 89.84H168.779L166.463 95.912L166.223 96.728L165.983 95.912L163.667 89.84ZM175.796 98H177.2L174.056 89.84H172.484L169.34 98H170.684L171.38 96.164H175.1L175.796 98ZM173 91.928L173.24 91.136L173.48 91.928L174.692 95.108H171.788L173 91.928ZM178.286 98H179.63V89.84H178.286V98ZM181.38 98H186.672V96.908H182.724V89.84H181.38V98ZM193.679 98H195.083L191.939 89.84H190.367L187.223 98H188.567L189.263 96.164H192.983L193.679 98ZM190.883 91.928L191.123 91.136L191.363 91.928L192.575 95.108H189.671L190.883 91.928ZM196.169 98H199.577C201.377 98 202.445 97.148 202.445 95.672C202.445 94.712 201.905 94.004 200.897 93.704C201.605 93.404 201.989 92.816 201.989 92.06C201.989 90.692 200.897 89.84 199.169 89.84H196.169V98ZM199.133 90.908C200.057 90.908 200.609 91.376 200.609 92.132C200.609 92.828 200.069 93.308 199.109 93.308H197.513V90.908H199.133ZM199.409 94.352C200.453 94.352 201.065 94.856 201.065 95.636C201.065 96.416 200.489 96.932 199.541 96.932H197.513V94.352H199.409ZM203.786 98H205.13V89.84H203.786V98ZM206.88 98H212.172V96.908H208.224V89.84H206.88V98ZM213.407 98H214.751V89.84H213.407V98ZM218.697 98H220.041V90.968H222.753V89.84H215.973V90.968H218.697V98ZM226.138 98H227.482V95.036L230.374 89.84H228.946L227.206 93.044L226.858 93.872L226.498 93.044L224.758 89.84H223.246L226.138 95.036V98Z" fill="white"/>
<path opacity="0.3" d="M9.22358 95.156C11.1196 95.156 12.2596 93.728 12.2596 91.148C12.2596 88.616 11.1436 87.128 9.22358 87.128C7.31558 87.128 6.17558 88.568 6.17558 91.148C6.17558 93.668 7.29158 95.156 9.22358 95.156ZM9.22358 94.064C8.10758 94.064 7.48358 92.996 7.48358 91.148C7.48358 89.252 8.10758 88.22 9.22358 88.22C10.3276 88.22 10.9516 89.276 10.9516 91.148C10.9516 93.032 10.3396 94.064 9.22358 94.064ZM14.7456 91.484C15.9216 91.484 16.6176 90.692 16.6176 89.312C16.6176 87.944 15.9216 87.128 14.7456 87.128C13.5816 87.128 12.8736 87.92 12.8736 89.312C12.8736 90.692 13.5696 91.484 14.7456 91.484ZM14.1576 95H15.3696L20.7576 87.284H19.5576L14.1576 95ZM14.7456 90.62C14.2296 90.62 13.9416 90.152 13.9416 89.312C13.9416 88.46 14.2176 88.004 14.7456 88.004C15.2736 88.004 15.5616 88.472 15.5616 89.312C15.5616 90.164 15.2736 90.62 14.7456 90.62ZM20.1576 95.108C21.3456 95.108 22.0296 94.316 22.0296 92.936C22.0296 91.556 21.3336 90.74 20.1576 90.74C18.9936 90.74 18.2856 91.544 18.2856 92.936C18.2856 94.304 18.9816 95.108 20.1576 95.108ZM20.1576 94.244C19.6416 94.244 19.3536 93.776 19.3536 92.936C19.3536 92.084 19.6416 91.616 20.1576 91.616C20.6856 91.616 20.9736 92.084 20.9736 92.936C20.9736 93.788 20.6856 94.244 20.1576 94.244Z" fill="white"/>
</svg>
