<svg width="18" height="18" viewBox="0 0 18 18" fill="none" xmlns="http://www.w3.org/2000/svg">
<path fill-rule="evenodd" clip-rule="evenodd" d="M5.22678 11.4142C5.27903 11.3618 5.3411 11.3203 5.40944 11.2919C5.47778 11.2636 5.55104 11.249 5.62503 11.249C5.69902 11.249 5.77228 11.2636 5.84062 11.2919C5.90895 11.3203 5.97103 11.3618 6.02328 11.4142L9.00003 14.3921L11.9768 11.4142C12.0291 11.3619 12.0912 11.3204 12.1595 11.2921C12.2278 11.2638 12.3011 11.2493 12.375 11.2493C12.449 11.2493 12.5222 11.2638 12.5906 11.2921C12.6589 11.3204 12.721 11.3619 12.7733 11.4142C12.8256 11.4665 12.8671 11.5286 12.8954 11.5969C12.9237 11.6653 12.9382 11.7385 12.9382 11.8125C12.9382 11.8864 12.9237 11.9597 12.8954 12.028C12.8671 12.0963 12.8256 12.1584 12.7733 12.2107L9.39828 15.5857C9.34603 15.6381 9.28395 15.6797 9.21562 15.708C9.14728 15.7364 9.07402 15.751 9.00003 15.751C8.92604 15.751 8.85278 15.7364 8.78444 15.708C8.7161 15.6797 8.65403 15.6381 8.60178 15.5857L5.22678 12.2107C5.17439 12.1585 5.13283 12.0964 5.10448 12.0281C5.07612 11.9597 5.06152 11.8865 5.06152 11.8125C5.06152 11.7385 5.07612 11.6652 5.10448 11.5969C5.13283 11.5285 5.17439 11.4665 5.22678 11.4142Z" fill="white"/>
<path fill-rule="evenodd" clip-rule="evenodd" d="M9 15.1875C8.85082 15.1875 8.70774 15.1282 8.60225 15.0227C8.49676 14.9173 8.4375 14.7742 8.4375 14.625L8.4375 2.8125C8.4375 2.66332 8.49676 2.52024 8.60225 2.41475C8.70774 2.30926 8.85082 2.25 9 2.25C9.14918 2.25 9.29226 2.30926 9.39775 2.41475C9.50324 2.52024 9.5625 2.66332 9.5625 2.8125L9.5625 14.625C9.5625 14.7742 9.50324 14.9173 9.39775 15.0227C9.29226 15.1282 9.14918 15.1875 9 15.1875Z" fill="white"/>
</svg>
