<svg width="14" height="13" viewBox="0 0 14 13" fill="none" xmlns="http://www.w3.org/2000/svg">
<path fill-rule="evenodd" clip-rule="evenodd" d="M13.8537 1.14689C13.9002 1.19334 13.9372 1.24851 13.9624 1.30926C13.9876 1.37001 14.0005 1.43513 14.0005 1.50089C14.0005 1.56666 13.9876 1.63178 13.9624 1.69253C13.9372 1.75327 13.9002 1.80845 13.8537 1.85489L6.85366 8.85489C6.80721 8.90145 6.75203 8.9384 6.69129 8.9636C6.63054 8.98881 6.56542 9.00179 6.49966 9.00179C6.43389 9.00179 6.36877 8.98881 6.30802 8.9636C6.24728 8.9384 6.1921 8.90145 6.14566 8.85489L3.14566 5.85489C3.09917 5.8084 3.06229 5.75322 3.03713 5.69248C3.01197 5.63174 2.99902 5.56664 2.99902 5.50089C2.99902 5.43515 3.01197 5.37005 3.03713 5.30931C3.06229 5.24857 3.09917 5.19338 3.14566 5.14689C3.19214 5.1004 3.24733 5.06353 3.30807 5.03837C3.36881 5.01321 3.43391 5.00026 3.49966 5.00026C3.5654 5.00026 3.6305 5.01321 3.69124 5.03837C3.75198 5.06353 3.80717 5.1004 3.85366 5.14689L6.49966 7.79389L13.1457 1.14689C13.1921 1.10033 13.2473 1.06339 13.308 1.03818C13.3688 1.01297 13.4339 1 13.4997 1C13.5654 1 13.6305 1.01297 13.6913 1.03818C13.752 1.06339 13.8072 1.10033 13.8537 1.14689Z" fill="#0b1418"/>
<path fill-rule="evenodd" clip-rule="evenodd" d="M6.50001 1.00084C5.41221 1.00084 4.34884 1.32341 3.44437 1.92776C2.5399 2.53211 1.83495 3.39109 1.41867 4.39609C1.00239 5.40108 0.893472 6.50695 1.10569 7.57384C1.31791 8.64074 1.84173 9.62074 2.61092 10.3899C3.38011 11.1591 4.36012 11.6829 5.42701 11.8952C6.49391 12.1074 7.59978 11.9985 8.60477 11.5822C9.60976 11.1659 10.4687 10.461 11.0731 9.55648C11.6774 8.65201 12 7.58864 12 6.50084C12 6.36824 12.0527 6.24106 12.1465 6.14729C12.2402 6.05352 12.3674 6.00084 12.5 6.00084C12.6326 6.00084 12.7598 6.05352 12.8536 6.14729C12.9473 6.24106 13 6.36824 13 6.50084C12.9998 7.93168 12.5275 9.32248 11.6564 10.4575C10.7852 11.5926 9.56385 12.4085 8.18173 12.7787C6.79961 13.1489 5.33396 13.0527 4.01209 12.505C2.69021 11.9574 1.58597 10.9888 0.870636 9.74965C0.155297 8.51046 -0.131172 7.06987 0.0556585 5.65128C0.242488 4.23269 0.892176 2.91539 1.90396 1.90367C2.91575 0.891946 4.23309 0.242343 5.65169 0.055604C7.07029 -0.131135 8.51087 0.155426 9.75001 0.870844C9.80976 0.902101 9.86258 0.945123 9.90527 0.99732C9.94797 1.04952 9.97966 1.10981 9.99845 1.17458C10.0172 1.23934 10.0227 1.30724 10.0146 1.37418C10.0065 1.44112 9.98488 1.50573 9.95113 1.56411C9.91739 1.62249 9.87218 1.67344 9.81823 1.7139C9.76428 1.75436 9.7027 1.78349 9.6372 1.79953C9.57171 1.81557 9.50364 1.8182 9.4371 1.80726C9.37056 1.79631 9.30692 1.77202 9.25001 1.73584C8.41424 1.25253 7.46547 0.998955 6.50001 1.00084Z" fill="#0b1418"/>
</svg>
