<svg width="162" height="100" viewBox="0 0 162 100" fill="none" xmlns="http://www.w3.org/2000/svg">
<path d="M81.4 91C82.5 91 83.3 90.1 83.3 89.2V78.9C83.3 78 82.4 77.1 81.4 77.1C80.3 77.1 79.5 78.1 79.5 78.9V89.2C79.5 90 80.4 91 81.4 91ZM81.2 26.6C68.2 26.6 57.6 37.2 57.6 50.2C57.6 63.2 68.2 73.8 81.2 73.8C94.2 73.8 104.8 63.2 104.8 50.2C104.8 37.1 94.3 26.6 81.2 26.6ZM79.5 35.9C79.5 35.1 80.3 34.3 81.3 34.3C82.3 34.3 83 35.2 83 35.9V44C83 44.8 82.2 45.6 81.3 45.6C80.3 45.6 79.5 44.7 79.5 44V35.9ZM81.2 62.2C74.4 62.2 68.9 56.7 68.9 49.9C68.9 44.4 72.5 39.7 77.5 38.2V42.8C74.9 44.1 73.1 46.8 73.1 49.9C73.1 54.3 76.7 57.9 81.1 57.9C85.5 57.9 89.1 54.3 89.1 49.9C89.1 46.8 87.3 44.1 84.7 42.7V38.1C89.7 39.6 93.3 44.3 93.3 49.8C93.5 56.7 88 62.2 81.2 62.2ZM54.2 49.9C54.2 48.8 53.3 48 52.4 48H42C41.1 48 40.2 48.9 40.2 49.9C40.2 51 41.2 51.8 42 51.8H52.3C53.2 51.9 54.2 51 54.2 49.9ZM122.3 49.9C122.3 48.8 121.4 48 120.5 48H110.2C109.3 48 108.4 48.9 108.4 49.9C108.4 51 109.4 51.8 110.2 51.8H120.5C121.3 51.9 122.3 51 122.3 49.9ZM81.2 22.9C82.3 22.9 83.1 22 83.1 21.1V10.8C83.1 9.89999 82.2 9 81.2 9C80.1 9 79.3 9.99999 79.3 10.8V21C79.3 21.9 80.2 22.9 81.2 22.9ZM57.7 36.5C58.2 35.6 57.8 34.3 57.1 33.9L48.1 28.8C47.3 28.4 46.1 28.6 45.6 29.6C45.1 30.5 45.5 31.8 46.2 32.2L55.2 37.3C55.9 37.7 57.2 37.4 57.7 36.5ZM116.9 70.3C117.4 69.4 117 68.1 116.3 67.7L107.3 62.6C106.5 62.2 105.3 62.4 104.8 63.4C104.3 64.3 104.7 65.6 105.4 66L114.4 71.1C115.1 71.5 116.3 71.3 116.9 70.3ZM94.7 26.4C95.6 26.9 96.8 26.5 97.3 25.8L102.4 16.8C102.8 16 102.6 14.8 101.6 14.3C100.7 13.8 99.4 14.2 99 14.9L93.9 23.9C93.5 24.7 93.8 25.9 94.7 26.4ZM60.8 85.6C61.7 86.1 62.9 85.7 63.4 85L68.5 76C68.9 75.2 68.7 74 67.7 73.5C66.8 73 65.5 73.4 65.1 74.1L60 83.1C59.6 83.8 59.9 85 60.8 85.6ZM67.7 26.5C68.6 26 68.9 24.7 68.5 24L63.4 15C63 14.2 61.7 13.8 60.8 14.4C59.9 14.9 59.6 16.2 60 17L65.1 26C65.6 26.6 66.8 27 67.7 26.5ZM101.7 85.5C102.6 85 102.9 83.7 102.5 83L97.4 74C97 73.2 95.7 72.8 94.8 73.4C93.9 73.9 93.6 75.2 94 76L99.1 85C99.5 85.7 100.8 86.1 101.7 85.5ZM104.7 36.4C105.2 37.3 106.5 37.6 107.2 37.2L116.2 32.1C117 31.7 117.4 30.4 116.8 29.5C116.3 28.6 115 28.3 114.2 28.7L105.2 33.8C104.6 34.3 104.2 35.5 104.7 36.4ZM45.7 70.4C46.2 71.3 47.5 71.6 48.2 71.2L57.2 66.1C58 65.7 58.4 64.4 57.8 63.5C57.3 62.6 56 62.3 55.2 62.7L46.2 67.8C45.5 68.2 45.1 69.5 45.7 70.4Z" fill="white"/>
</svg>
