<svg width="162" height="100" viewBox="0 0 162 100" fill="none" xmlns="http://www.w3.org/2000/svg">
<path d="M67.9 56C68.1 56 68.3 56.2 68.3 56.4V68.1C68.3 68.3 68.1 68.5 67.9 68.5H63.2C63 68.5 62.8 68.3 62.8 68.1V56.4C62.8 56.2 63 56 63.2 56H67.9ZM120 73.5H41.9C41.7 73.5 41.5 73.7 41.5 73.9V78.7C41.5 78.9 41.7 79.1 41.9 79.1H120C120.2 79.1 120.4 78.9 120.4 78.7V73.9C120.4 73.7 120.2 73.5 120 73.5ZM120 83H41.9C41.7 83 41.5 83.2 41.5 83.4V88.2C41.5 88.4 41.7 88.6 41.9 88.6H120C120.2 88.6 120.4 88.4 120.4 88.2V83.4C120.4 83.2 120.2 83 120 83ZM105.1 43.1C104.1 42.3 101.5 40.6 98.3 40.6C96 40.6 93.9 41.5 92 43.3C91.9 43.4 91.8 43.6 91.8 43.8V44.2C91.8 44.4 91.9 44.6 92 44.7C92.2 44.8 92.3 44.9 92.6 44.8H92.7C92.8 44.7 93 44.7 93.1 44.6C93.5 44.3 94.6 43.9 96.2 43.9C97.9 43.9 101.1 44.3 104.3 47.3L104.4 47.4C104.6 47.6 104.8 47.7 105.1 47.7C105.3 47.7 105.6 47.6 105.8 47.4L105.9 47.3C109.1 44.4 112.3 43.9 114 43.9C115.6 43.9 116.7 44.3 117.1 44.6C117.2 44.7 117.3 44.8 117.5 44.9C117.6 44.9 117.8 45 118 44.9C118.3 44.8 118.5 44.6 118.5 44.3V43.9C118.5 43.7 118.4 43.5 118.3 43.4C116.4 41.6 114.3 40.7 111.9 40.7C108.7 40.5 106.1 42.3 105.1 43.1ZM100.3 11.9C100.1 12 100 12.1 100 12.3L99.9 12.6C99.8 12.8 99.9 13 100 13.2C100.1 13.4 100.3 13.5 100.5 13.5H100.6C100.7 13.5 100.9 13.5 101 13.4C101.1 13.4 101.2 13.3 101.5 13.3C101.8 13.3 105 13.4 107.1 16.9V17C107.2 17.2 107.4 17.3 107.6 17.4H107.8C107.9 17.4 108.1 17.4 108.2 17.3H108.3C109.4 16.7 110.6 16.4 111.8 16.4C113.8 16.4 115.1 17.2 115.4 17.5L115.7 17.8C115.8 17.8 115.9 17.9 116 17.9H116.2C116.3 17.9 116.4 17.9 116.5 17.8C116.7 17.7 116.8 17.6 116.8 17.4L116.9 17.2V17C116.9 16.9 116.9 16.8 116.8 16.7C115.3 14.1 113.1 13.5 111.5 13.5C110.3 13.5 109.3 13.8 108.7 14C108 13 106.2 11 103.4 11C102.3 11.2 101.3 11.4 100.3 11.9ZM83.8 24V24.4C83.8 24.6 83.9 24.8 84.1 24.9C84.3 25 84.5 25 84.6 25H84.7C84.8 24.9 84.9 24.9 85 24.8C85.3 24.6 86.4 24.1 88 24.1C89.5 24.1 91.8 24.5 94.2 26.4L94.3 26.5C94.5 26.6 94.7 26.7 94.9 26.7H95C95.2 26.7 95.5 26.6 95.6 26.4L95.7 26.3C98.3 23.5 101.1 23.1 102.6 23.1C103.6 23.1 104.4 23.3 104.6 23.5C104.7 23.6 104.8 23.7 105 23.7H105.5C105.8 23.6 106 23.3 105.9 23V22.7C105.9 22.5 105.8 22.4 105.7 22.2C104.1 20.9 102.5 20.2 100.7 20.2C98 20.2 95.8 21.8 94.9 22.6C94.1 22 92.1 20.9 89.7 20.9C87.6 20.9 85.8 21.8 84.2 23.5C83.8 23.6 83.8 23.8 83.8 24ZM44.2 30.2C44.2 25.5 48 21.7 52.7 21.7H53.2C53.6 15.8 58.6 11.1 64.6 11.1C70.9 11.1 76.1 16.2 76.1 22.6C76.1 24.4 75.7 26.1 74.9 27.6C80.6 28.9 84.9 34 84.9 40.1C84.9 47.2 79.2 52.9 72.1 52.9C71.6 52.9 55 52.8 55 52.8C50 52.8 45.9 48.7 45.9 43.7C45.9 41.3 46.8 39.1 48.4 37.5C46 36.1 44.2 33.4 44.2 30.2Z" fill="white"/>
</svg>
