<svg width="161" height="100" viewBox="0 0 161 100" fill="none" xmlns="http://www.w3.org/2000/svg">
<path d="M120.8 54.75L101.7 43.75V21.65C101.7 21.15 101.5 20.75 101 20.55L81.2 9.15C80.8 8.95 80.3 8.95 79.9 9.15L60.1 20.55C59.7 20.75 59.4 21.25 59.4 21.65V43.75L40.3 54.75C39.9 54.95 39.6 55.45 39.6 55.85V78.65C39.6 79.15 39.8 79.55 40.3 79.75L60.1 91.15C60.3 91.25 60.5 91.35 60.8 91.35C61 91.35 61.3 91.25 61.5 91.15L80.5999 80.15L99.7 91.15C99.9 91.25 100.1 91.35 100.4 91.35C100.7 91.35 100.9 91.25 101.1 91.15L120.9 79.75C121.3 79.55 121.6 79.05 121.6 78.65V55.85C121.4 55.35 121.2 54.95 120.8 54.75ZM79.2 76.45L63.3 67.25L79.2 58.05V76.45ZM97.7 44.45L81.8 53.65V35.35L97.7 44.45ZM79.2 53.55L63.3 44.35L79.2 35.15V53.55ZM83.2 55.85L100.4 45.95L117.6 55.85L100.4 65.75L83.2 55.85ZM99 42.15L83.0999 32.95L99 23.75V42.15ZM77.9 33.05L62 42.25V23.95L77.9 33.05ZM59.5 87.85L42.3 77.95V58.15L59.5 68.05V87.85ZM62.1 87.85V69.55L78 78.75L62.1 87.85ZM118.8 77.95L101.6 87.85V68.05L118.8 58.15V77.95Z" fill="white"/>
</svg>
