<svg width="162" height="100" viewBox="0 0 162 100" fill="none" xmlns="http://www.w3.org/2000/svg">
<path d="M104.8 18.5111C104.8 18.5111 103.4 20.3111 103.8 22.1111C104.2 23.9111 106.2 24.9111 106.2 24.9111C106.2 24.9111 107.6 23.1111 107.2 21.3111C106.8 19.5111 104.8 18.5111 104.8 18.5111ZM102.6 28.7111C102.6 28.7111 104 26.9111 103.6 25.1111C103.2 23.3111 101.2 22.3111 101.2 22.3111C101.2 22.3111 99.8 24.1111 100.2 25.8111C100.6 27.7111 102.6 28.7111 102.6 28.7111ZM108.2 26.8111C108.2 26.8111 109.6 28.2111 111.3 28.1111C112.9 28.0111 114.1 26.3111 114.1 26.3111C114.1 26.3111 112.7 24.9111 111 25.0111C109.4 25.1111 108.2 26.8111 108.2 26.8111ZM110.5 19.1111C109.2 20.4111 109.4 22.8111 109.4 22.8111C109.4 22.8111 111.7 23.0111 113.1 21.7111C114.4 20.4111 114.2 18.0111 114.2 18.0111C114.2 18.0111 111.8 17.8111 110.5 19.1111ZM107.6 32.2111C109.2 32.4111 110.7 31.0111 110.7 31.0111C110.7 31.0111 109.6 29.3111 108 29.1111C106.4 28.9111 104.9 30.3111 104.9 30.3111C104.9 30.3111 106 32.0111 107.6 32.2111ZM109 60.3111H96.9C96 60.3111 95.2 61.1111 95.2 62.0111C95.2 62.9111 96 63.7111 96.9 63.7111H109C109.9 63.7111 110.7 62.9111 110.7 62.0111C110.8 61.1111 110 60.3111 109 60.3111ZM109 79.3111H96.9C96 79.3111 95.2 80.1111 95.2 81.0111C95.2 81.9111 96 82.7111 96.9 82.7111H109C109.9 82.7111 110.7 81.9111 110.7 81.0111C110.8 80.0111 110 79.3111 109 79.3111ZM54.5 56.2111C54.2 56.1111 53.9 56.0111 53.7 56.0111C53.7 56.0111 54 56.1111 54.5 56.2111Z" fill="white"/>
<path d="M108.6 65.011H97.4C96.9 65.011 96.4 65.411 96.4 66.011V69.4111L89.1 70.2111L78.4 70.011V63.4111C79.8 63.2111 81.2 62.911 82.7 62.511C93 59.611 95.3 51.1111 95 45.2111C94.8 39.2111 96.7 36.9111 99.5 35.8111C100.3 35.5111 101.1 35.3111 101.8 35.2111C101.8 36.7111 102.1 38.4111 102.8 40.4111C103 40.4111 103.3 40.4111 103.5 40.3111C102.8 38.2111 102.5 36.511 102.5 35.011C103.9 34.811 104.9 34.9111 104.9 34.9111C104.9 34.9111 103.9 34.4111 102.6 33.2111C103.1 30.4111 104.8 28.6111 106.5 26.8111C107.5 25.8111 108.5 24.8111 109.2 23.6111L108.6 23.2111C107.9 24.4111 106.9 25.3111 106 26.3111C104.3 28.0111 102.6 29.8111 102 32.7111C101.4 32.2111 100.8 31.6111 100.2 30.9111C97.7 28.0111 94.4 30.111 89.7 34.511C85 38.811 79.2 39.0111 73.4 33.1111C65.8 25.3111 59.2 25.4111 54.7 25.8111C57.8 27.1111 58.9 30.0111 60.5 37.4111C62.1 45.1111 66.3 48.6111 72 49.1111C68.8 50.2111 68.7 52.0111 64.5 54.9111C61.2 57.2111 56.6 56.511 54.7 56.011C58.2 57.111 62.2 60.711 65.9 62.011C68 62.711 70.3 63.2111 72.6 63.4111V69.7111L53.4 69.3111V73.7111L89.3 72.9111L96.6 73.7111V77.1111C96.6 77.6111 97 78.1111 97.6 78.1111H108.8C109.3 78.1111 109.8 77.7111 109.8 77.1111V65.9111C109.6 65.4111 109.1 65.011 108.6 65.011ZM74.2 63.6111C75 63.6111 75.8 63.611 76.6 63.511V69.8111L74.2 69.7111V63.6111ZM52.1 73.011C52.1 73.911 51.5 74.7111 50.7 74.7111H49.8C49 74.7111 48.4 74.011 48.4 73.011V70.011C48.4 69.111 49 68.3111 49.8 68.3111H50.7C51.5 68.3111 52.1 69.011 52.1 70.011V73.011Z" fill="white"/>
</svg>
