<svg width="433" height="456" viewBox="0 0 433 456" fill="none" xmlns="http://www.w3.org/2000/svg">
<path d="M432.354 417.354C432.549 417.158 432.549 416.842 432.354 416.646L429.172 413.464C428.976 413.269 428.66 413.269 428.464 413.464C428.269 413.66 428.269 413.976 428.464 414.172L431.293 417L428.464 419.828C428.269 420.024 428.269 420.34 428.464 420.535C428.66 420.731 428.976 420.731 429.172 420.535L432.354 417.354ZM4.37114e-08 417.5L432 417.5L432 416.5L-4.37114e-08 416.5L4.37114e-08 417.5Z" fill="#949494"/>
<path d="M18.3536 0.646454C18.1583 0.451202 17.8417 0.451202 17.6465 0.646454L14.4645 3.82843C14.2692 4.02371 14.2692 4.34027 14.4645 4.53555C14.6597 4.7308 14.9763 4.7308 15.1716 4.53555L18 1.70712L20.8284 4.53555C21.0237 4.7308 21.3403 4.7308 21.5356 4.53555C21.7308 4.34027 21.7308 4.02371 21.5356 3.82843L18.3536 0.646454ZM18.5 435L18.5 1L17.5 1L17.5 435L18.5 435Z" fill="#949494"/>
<path opacity="0.3" d="M51.8559 452H57.3999V451.004H53.1759C53.7039 448.976 57.3399 448.892 57.3399 446.48C57.3399 445.16 56.4519 444.128 54.7119 444.128C53.0559 444.128 52.0359 445.04 51.8319 446.516H53.1399C53.2839 445.7 53.7519 445.208 54.6999 445.208C55.5639 445.208 56.0439 445.688 56.0439 446.492C56.0439 448.448 51.8559 448.208 51.8559 451.664V452ZM61.5419 452.156C63.4379 452.156 64.5779 450.728 64.5779 448.148C64.5779 445.616 63.4619 444.128 61.5419 444.128C59.6339 444.128 58.4939 445.568 58.4939 448.148C58.4939 450.668 59.6099 452.156 61.5419 452.156ZM61.5419 451.064C60.4259 451.064 59.8019 449.996 59.8019 448.148C59.8019 446.252 60.4259 445.22 61.5419 445.22C62.6459 445.22 63.2699 446.276 63.2699 448.148C63.2699 450.032 62.6579 451.064 61.5419 451.064ZM66.548 452H70.808V451.004H69.356V444.284H68.228V444.416C68.228 444.788 68.036 444.956 67.328 444.956H66.548V445.94H68.012V451.004H66.548V452ZM77.3861 452V450.272H78.4541V449.264H77.3861V444.284H76.2101L72.4061 449.12V450.272H76.0781V452H77.3861ZM73.5221 449.264L76.0781 445.904V449.264H73.5221Z" fill="white"/>
<path opacity="0.3" d="M109.856 452H115.4V451.004H111.176C111.704 448.976 115.34 448.892 115.34 446.48C115.34 445.16 114.452 444.128 112.712 444.128C111.056 444.128 110.036 445.04 109.832 446.516H111.14C111.284 445.7 111.752 445.208 112.7 445.208C113.564 445.208 114.044 445.688 114.044 446.492C114.044 448.448 109.856 448.208 109.856 451.664V452ZM119.542 452.156C121.438 452.156 122.578 450.728 122.578 448.148C122.578 445.616 121.462 444.128 119.542 444.128C117.634 444.128 116.494 445.568 116.494 448.148C116.494 450.668 117.61 452.156 119.542 452.156ZM119.542 451.064C118.426 451.064 117.802 449.996 117.802 448.148C117.802 446.252 118.426 445.22 119.542 445.22C120.646 445.22 121.27 446.276 121.27 448.148C121.27 450.032 120.658 451.064 119.542 451.064ZM124.548 452H128.808V451.004H127.356V444.284H126.228V444.416C126.228 444.788 126.036 444.956 125.328 444.956H124.548V445.94H126.012V451.004H124.548V452ZM136.382 449.42C136.382 447.956 135.59 446.684 133.562 446.684C132.854 446.684 132.338 446.888 131.906 447.2L132.026 445.292H136.01V444.284H130.994L130.754 448.4L131.906 448.508C132.17 448.112 132.638 447.752 133.454 447.752C134.69 447.752 135.098 448.592 135.098 449.444C135.098 450.464 134.546 451.076 133.466 451.076C132.434 451.076 131.87 450.584 131.738 449.792H130.454C130.67 451.268 131.738 452.156 133.478 452.156C135.374 452.156 136.382 451.004 136.382 449.42Z" fill="white"/>
<path opacity="0.3" d="M167.856 452H173.4V451.004H169.176C169.704 448.976 173.34 448.892 173.34 446.48C173.34 445.16 172.452 444.128 170.712 444.128C169.056 444.128 168.036 445.04 167.832 446.516H169.14C169.284 445.7 169.752 445.208 170.7 445.208C171.564 445.208 172.044 445.688 172.044 446.492C172.044 448.448 167.856 448.208 167.856 451.664V452ZM177.542 452.156C179.438 452.156 180.578 450.728 180.578 448.148C180.578 445.616 179.462 444.128 177.542 444.128C175.634 444.128 174.494 445.568 174.494 448.148C174.494 450.668 175.61 452.156 177.542 452.156ZM177.542 451.064C176.426 451.064 175.802 449.996 175.802 448.148C175.802 446.252 176.426 445.22 177.542 445.22C178.646 445.22 179.27 446.276 179.27 448.148C179.27 450.032 178.658 451.064 177.542 451.064ZM182.548 452H186.808V451.004H185.356V444.284H184.228V444.416C184.228 444.788 184.036 444.956 183.328 444.956H182.548V445.94H184.012V451.004H182.548V452ZM194.478 449.516C194.478 447.908 193.35 446.948 191.682 446.948C190.818 446.948 190.074 447.296 189.618 447.932C189.666 446.168 190.338 445.22 191.526 445.22C192.306 445.22 192.882 445.64 193.134 446.492H194.442C194.082 444.968 193.038 444.128 191.574 444.128C189.594 444.128 188.418 445.568 188.418 448.148C188.418 450.896 189.69 452.144 191.574 452.156C191.586 452.156 191.586 452.156 191.598 452.156C193.254 452.156 194.478 451.16 194.478 449.516ZM191.562 451.076C190.59 451.076 189.942 450.512 189.942 449.564C189.942 448.58 190.578 448.016 191.562 448.016C192.51 448.016 193.158 448.592 193.158 449.564C193.158 450.536 192.522 451.076 191.562 451.076Z" fill="white"/>
<path opacity="0.3" d="M225.856 452H231.4V451.004H227.176C227.704 448.976 231.34 448.892 231.34 446.48C231.34 445.16 230.452 444.128 228.712 444.128C227.056 444.128 226.036 445.04 225.832 446.516H227.14C227.284 445.7 227.752 445.208 228.7 445.208C229.564 445.208 230.044 445.688 230.044 446.492C230.044 448.448 225.856 448.208 225.856 451.664V452ZM235.542 452.156C237.438 452.156 238.578 450.728 238.578 448.148C238.578 445.616 237.462 444.128 235.542 444.128C233.634 444.128 232.494 445.568 232.494 448.148C232.494 450.668 233.61 452.156 235.542 452.156ZM235.542 451.064C234.426 451.064 233.802 449.996 233.802 448.148C233.802 446.252 234.426 445.22 235.542 445.22C236.646 445.22 237.27 446.276 237.27 448.148C237.27 450.032 236.658 451.064 235.542 451.064ZM240.548 452H244.808V451.004H243.356V444.284H242.228V444.416C242.228 444.788 242.036 444.956 241.328 444.956H240.548V445.94H242.012V451.004H240.548V452ZM249.286 452C249.562 449.588 250.51 447.272 252.118 445.1V444.284H246.586V445.292H250.738C249.298 447.248 248.326 449.468 247.942 452H249.286Z" fill="white"/>
<path opacity="0.3" d="M283.856 452H289.4V451.004H285.176C285.704 448.976 289.34 448.892 289.34 446.48C289.34 445.16 288.452 444.128 286.712 444.128C285.056 444.128 284.036 445.04 283.832 446.516H285.14C285.284 445.7 285.752 445.208 286.7 445.208C287.564 445.208 288.044 445.688 288.044 446.492C288.044 448.448 283.856 448.208 283.856 451.664V452ZM293.542 452.156C295.438 452.156 296.578 450.728 296.578 448.148C296.578 445.616 295.462 444.128 293.542 444.128C291.634 444.128 290.494 445.568 290.494 448.148C290.494 450.668 291.61 452.156 293.542 452.156ZM293.542 451.064C292.426 451.064 291.802 449.996 291.802 448.148C291.802 446.252 292.426 445.22 293.542 445.22C294.646 445.22 295.27 446.276 295.27 448.148C295.27 450.032 294.658 451.064 293.542 451.064ZM298.548 452H302.808V451.004H301.356V444.284H300.228V444.416C300.228 444.788 300.036 444.956 299.328 444.956H298.548V445.94H300.012V451.004H298.548V452ZM307.418 452.156C309.182 452.156 310.346 451.292 310.346 449.84C310.346 449.012 309.878 448.352 309.074 447.98C309.71 447.632 310.094 447.044 310.094 446.3C310.094 444.944 309.014 444.128 307.418 444.128C305.834 444.128 304.754 444.992 304.754 446.3C304.754 447.044 305.114 447.62 305.738 447.98C304.958 448.34 304.49 448.976 304.49 449.852C304.49 451.268 305.654 452.156 307.418 452.156ZM307.418 445.172C308.282 445.172 308.834 445.604 308.834 446.36C308.834 447.092 308.258 447.548 307.418 447.548C306.566 447.548 306.014 447.116 306.014 446.348C306.014 445.616 306.578 445.172 307.418 445.172ZM307.418 451.112C306.434 451.112 305.774 450.608 305.774 449.792C305.774 448.928 306.434 448.448 307.418 448.448C308.39 448.448 309.062 448.94 309.062 449.78C309.062 450.632 308.414 451.112 307.418 451.112Z" fill="white"/>
<path opacity="0.3" d="M341.856 452H347.4V451.004H343.176C343.704 448.976 347.34 448.892 347.34 446.48C347.34 445.16 346.452 444.128 344.712 444.128C343.056 444.128 342.036 445.04 341.832 446.516H343.14C343.284 445.7 343.752 445.208 344.7 445.208C345.564 445.208 346.044 445.688 346.044 446.492C346.044 448.448 341.856 448.208 341.856 451.664V452ZM351.542 452.156C353.438 452.156 354.578 450.728 354.578 448.148C354.578 445.616 353.462 444.128 351.542 444.128C349.634 444.128 348.494 445.568 348.494 448.148C348.494 450.668 349.61 452.156 351.542 452.156ZM351.542 451.064C350.426 451.064 349.802 449.996 349.802 448.148C349.802 446.252 350.426 445.22 351.542 445.22C352.646 445.22 353.27 446.276 353.27 448.148C353.27 450.032 352.658 451.064 351.542 451.064ZM356.548 452H360.808V451.004H359.356V444.284H358.228V444.416C358.228 444.788 358.036 444.956 357.328 444.956H356.548V445.94H358.012V451.004H356.548V452ZM365.274 444.128C363.594 444.128 362.418 445.112 362.418 446.732C362.418 448.424 363.546 449.396 365.226 449.396C366.03 449.396 366.714 449.036 367.146 448.424C367.098 450.152 366.462 451.064 365.286 451.064C364.518 451.064 363.93 450.668 363.702 449.864H362.394C362.742 451.352 363.81 452.156 365.238 452.156C367.17 452.156 368.37 450.728 368.37 448.1C368.37 445.4 367.182 444.14 365.298 444.128C365.286 444.128 365.286 444.128 365.274 444.128ZM365.322 445.208C366.27 445.208 366.894 445.772 366.894 446.732C366.894 447.752 366.27 448.328 365.322 448.328C364.362 448.328 363.738 447.74 363.738 446.732C363.738 445.76 364.362 445.208 365.322 445.208Z" fill="white"/>
<path opacity="0.3" d="M399.856 452H405.4V451.004H401.176C401.704 448.976 405.34 448.892 405.34 446.48C405.34 445.16 404.452 444.128 402.712 444.128C401.056 444.128 400.036 445.04 399.832 446.516H401.14C401.284 445.7 401.752 445.208 402.7 445.208C403.564 445.208 404.044 445.688 404.044 446.492C404.044 448.448 399.856 448.208 399.856 451.664V452ZM409.542 452.156C411.438 452.156 412.578 450.728 412.578 448.148C412.578 445.616 411.462 444.128 409.542 444.128C407.634 444.128 406.494 445.568 406.494 448.148C406.494 450.668 407.61 452.156 409.542 452.156ZM409.542 451.064C408.426 451.064 407.802 449.996 407.802 448.148C407.802 446.252 408.426 445.22 409.542 445.22C410.646 445.22 411.27 446.276 411.27 448.148C411.27 450.032 410.658 451.064 409.542 451.064ZM413.684 452H419.228V451.004H415.004C415.532 448.976 419.168 448.892 419.168 446.48C419.168 445.16 418.28 444.128 416.54 444.128C414.884 444.128 413.864 445.04 413.66 446.516H414.968C415.112 445.7 415.58 445.208 416.528 445.208C417.392 445.208 417.872 445.688 417.872 446.492C417.872 448.448 413.684 448.208 413.684 451.664V452ZM423.37 452.156C425.266 452.156 426.406 450.728 426.406 448.148C426.406 445.616 425.29 444.128 423.37 444.128C421.462 444.128 420.322 445.568 420.322 448.148C420.322 450.668 421.438 452.156 423.37 452.156ZM423.37 451.064C422.254 451.064 421.63 449.996 421.63 448.148C421.63 446.252 422.254 445.22 423.37 445.22C424.474 445.22 425.098 446.276 425.098 448.148C425.098 450.032 424.486 451.064 423.37 451.064Z" fill="white"/>
<line x1="64.5" y1="424" x2="64.5" y2="433" stroke="#949494"/>
<line x1="123.5" y1="424" x2="123.5" y2="433" stroke="#949494"/>
<line x1="181.5" y1="424" x2="181.5" y2="433" stroke="#949494"/>
<line x1="239.5" y1="424" x2="239.5" y2="433" stroke="#949494"/>
<line x1="297.5" y1="424" x2="297.5" y2="433" stroke="#949494"/>
<line x1="355.5" y1="424" x2="355.5" y2="433" stroke="#949494"/>
<line x1="413.5" y1="424" x2="413.5" y2="433" stroke="#949494"/>
<circle cx="65" cy="233" r="6" fill="#A21942"/>
<circle cx="65" cy="120" r="5.5" fill="#FCC30B" stroke="#FCC30B"/>
<circle cx="123" cy="196" r="6" fill="#A21942"/>
<circle cx="181" cy="177" r="6" fill="#A21942"/>
<circle cx="181" cy="251" r="5.5" fill="#FCC30B" stroke="#FCC30B"/>
<circle cx="239" cy="121" r="6" fill="#A21942"/>
<circle cx="239" cy="232" r="5.5" fill="#FCC30B" stroke="#FCC30B"/>
<circle cx="297" cy="144" r="6" fill="#A21942"/>
<circle cx="355" cy="177" r="6" fill="#A21942"/>
<circle cx="355" cy="220" r="5.5" fill="#FCC30B" stroke="#FCC30B"/>
<circle cx="413" cy="132" r="6" fill="#A21942"/>
<circle cx="413" cy="281" r="5.5" fill="#FCC30B" stroke="#FCC30B"/>
<path d="M65 233L123.5 195.5L181.5 177.5L239 121L297 143.5L355 177.5L413 132" stroke="#A21942"/>
<path d="M181.5 251.5L239 232M355.5 220L414.5 281.5" stroke="#FCC30B"/>
<path d="M239.5 232L355 220" stroke="#FCC30B" stroke-dasharray="3 3"/>
<path d="M182 251.5L64.5 120.5" stroke="#FCC30B" stroke-dasharray="3 3"/>
</svg>
